<svg width="168" height="67" viewBox="0 0 168 67" fill="none" xmlns="http://www.w3.org/2000/svg">
<path d="M15.72 31.4C13.5867 31.4 11.6 31.0533 9.76 30.36C7.94667 29.64 6.36 28.64 5 27.36C3.66667 26.0533 2.62667 24.52 1.88 22.76C1.13333 21 0.76 19.08 0.76 17C0.76 14.92 1.13333 13 1.88 11.24C2.62667 9.48 3.68 7.96 5.04 6.68C6.4 5.37333 7.98667 4.37333 9.8 3.68C11.6133 2.96 13.6 2.6 15.76 2.6C18.0533 2.6 20.1467 3 22.04 3.8C23.9333 4.57333 25.5333 5.73333 26.84 7.28L23.48 10.44C22.4667 9.34667 21.3333 8.53333 20.08 8C18.8267 7.44 17.4667 7.16 16 7.16C14.5333 7.16 13.1867 7.4 11.96 7.88C10.76 8.36 9.70667 9.04 8.8 9.92C7.92 10.8 7.22667 11.84 6.72 13.04C6.24 14.24 6 15.56 6 17C6 18.44 6.24 19.76 6.72 20.96C7.22667 22.16 7.92 23.2 8.8 24.08C9.70667 24.96 10.76 25.64 11.96 26.12C13.1867 26.6 14.5333 26.84 16 26.84C17.4667 26.84 18.8267 26.5733 20.08 26.04C21.3333 25.48 22.4667 24.64 23.48 23.52L26.84 26.72C25.5333 28.24 23.9333 29.4 22.04 30.2C20.1467 31 18.04 31.4 15.72 31.4ZM31.3425 31V9.64H36.1025V15.52L35.5425 13.8C36.1825 12.36 37.1825 11.2667 38.5425 10.52C39.9292 9.77333 41.6492 9.4 43.7025 9.4V14.16C43.4892 14.1067 43.2892 14.08 43.1025 14.08C42.9158 14.0533 42.7292 14.04 42.5425 14.04C40.6492 14.04 39.1425 14.6 38.0225 15.72C36.9025 16.8133 36.3425 18.4533 36.3425 20.64V31H31.3425ZM57.7888 31.28C55.4154 31.28 53.3354 30.8133 51.5488 29.88C49.7888 28.92 48.4154 27.6133 47.4288 25.96C46.4688 24.3067 45.9888 22.4267 45.9888 20.32C45.9888 18.1867 46.4554 16.3067 47.3888 14.68C48.3488 13.0267 49.6554 11.7333 51.3088 10.8C52.9888 9.86667 54.8954 9.4 57.0288 9.4C59.1088 9.4 60.9621 9.85333 62.5888 10.76C64.2154 11.6667 65.4954 12.9467 66.4288 14.6C67.3621 16.2533 67.8288 18.2 67.8288 20.44C67.8288 20.6533 67.8154 20.8933 67.7888 21.16C67.7888 21.4267 67.7754 21.68 67.7488 21.92H49.9488V18.6H65.1088L63.1488 19.64C63.1754 18.4133 62.9221 17.3333 62.3888 16.4C61.8554 15.4667 61.1221 14.7333 60.1888 14.2C59.2821 13.6667 58.2288 13.4 57.0288 13.4C55.8021 13.4 54.7221 13.6667 53.7888 14.2C52.8821 14.7333 52.1621 15.48 51.6288 16.44C51.1221 17.3733 50.8688 18.48 50.8688 19.76V20.56C50.8688 21.84 51.1621 22.9733 51.7488 23.96C52.3354 24.9467 53.1621 25.7067 54.2288 26.24C55.2954 26.7733 56.5221 27.04 57.9088 27.04C59.1088 27.04 60.1888 26.8533 61.1488 26.48C62.1088 26.1067 62.9621 25.52 63.7088 24.72L66.3888 27.8C65.4288 28.92 64.2154 29.7867 62.7488 30.4C61.3088 30.9867 59.6554 31.28 57.7888 31.28ZM85.2056 31V26.68L84.9256 25.76V18.2C84.9256 16.7333 84.4856 15.6 83.6056 14.8C82.7256 13.9733 81.3923 13.56 79.6056 13.56C78.4056 13.56 77.219 13.7467 76.0456 14.12C74.899 14.4933 73.9256 15.0133 73.1256 15.68L71.1656 12.04C72.3123 11.16 73.6723 10.5067 75.2456 10.08C76.8456 9.62667 78.499 9.4 80.2056 9.4C83.299 9.4 85.6856 10.1467 87.3656 11.64C89.0723 13.1067 89.9256 15.3867 89.9256 18.48V31H85.2056ZM78.4856 31.28C76.8856 31.28 75.4856 31.0133 74.2856 30.48C73.0856 29.92 72.1523 29.16 71.4856 28.2C70.8456 27.2133 70.5256 26.1067 70.5256 24.88C70.5256 23.68 70.8056 22.6 71.3656 21.64C71.9523 20.68 72.899 19.92 74.2056 19.36C75.5123 18.8 77.2456 18.52 79.4056 18.52H85.6056V21.84H79.7656C78.059 21.84 76.9123 22.12 76.3256 22.68C75.739 23.2133 75.4456 23.88 75.4456 24.68C75.4456 25.5867 75.8056 26.3067 76.5256 26.84C77.2456 27.3733 78.2456 27.64 79.5256 27.64C80.7523 27.64 81.8456 27.36 82.8056 26.8C83.7923 26.24 84.499 25.4133 84.9256 24.32L85.7656 27.32C85.2856 28.5733 84.419 29.5467 83.1656 30.24C81.939 30.9333 80.379 31.28 78.4856 31.28ZM104.383 31.28C102.036 31.28 100.223 30.68 98.9425 29.48C97.6625 28.2533 97.0225 26.4533 97.0225 24.08V4.92H102.023V23.96C102.023 24.9733 102.276 25.76 102.783 26.32C103.316 26.88 104.049 27.16 104.983 27.16C106.103 27.16 107.036 26.8667 107.783 26.28L109.183 29.84C108.596 30.32 107.876 30.68 107.023 30.92C106.169 31.16 105.289 31.28 104.383 31.28ZM93.5025 13.8V9.8H107.743V13.8H93.5025ZM113.296 31V9.64H118.296V31H113.296ZM115.816 6.12C114.882 6.12 114.109 5.82666 113.496 5.24C112.909 4.65333 112.616 3.94667 112.616 3.12C112.616 2.26667 112.909 1.56 113.496 0.999998C114.109 0.413332 114.882 0.119999 115.816 0.119999C116.749 0.119999 117.509 0.399999 118.096 0.959998C118.709 1.49333 119.016 2.17333 119.016 3C119.016 3.88 118.722 4.62666 118.136 5.24C117.549 5.82666 116.776 6.12 115.816 6.12ZM130.538 31L121.378 9.64H126.578L134.458 28.48H131.898L140.058 9.64H144.858L135.698 31H130.538ZM157.437 31.28C155.064 31.28 152.984 30.8133 151.197 29.88C149.437 28.92 148.064 27.6133 147.077 25.96C146.117 24.3067 145.637 22.4267 145.637 20.32C145.637 18.1867 146.104 16.3067 147.037 14.68C147.997 13.0267 149.304 11.7333 150.957 10.8C152.637 9.86667 154.544 9.4 156.677 9.4C158.757 9.4 160.611 9.85333 162.237 10.76C163.864 11.6667 165.144 12.9467 166.077 14.6C167.011 16.2533 167.477 18.2 167.477 20.44C167.477 20.6533 167.464 20.8933 167.437 21.16C167.437 21.4267 167.424 21.68 167.397 21.92H149.597V18.6H164.757L162.797 19.64C162.824 18.4133 162.571 17.3333 162.037 16.4C161.504 15.4667 160.771 14.7333 159.837 14.2C158.931 13.6667 157.877 13.4 156.677 13.4C155.451 13.4 154.371 13.6667 153.437 14.2C152.531 14.7333 151.811 15.48 151.277 16.44C150.771 17.3733 150.517 18.48 150.517 19.76V20.56C150.517 21.84 150.811 22.9733 151.397 23.96C151.984 24.9467 152.811 25.7067 153.877 26.24C154.944 26.7733 156.171 27.04 157.557 27.04C158.757 27.04 159.837 26.8533 160.797 26.48C161.757 26.1067 162.611 25.52 163.357 24.72L166.037 27.8C165.077 28.92 163.864 29.7867 162.397 30.4C160.957 30.9867 159.304 31.28 157.437 31.28ZM25.1428 66V38H29.4228L41.6628 58.44H39.4228L51.4628 38H55.7428L55.7828 66H50.8628L50.8228 45.72H51.8628L41.6228 62.8H39.3028L28.9028 45.72H30.1028V66H25.1428ZM62.8659 66V44.64H67.8659V66H62.8659ZM65.3859 41.12C64.4526 41.12 63.6793 40.8267 63.0659 40.24C62.4793 39.6533 62.1859 38.9467 62.1859 38.12C62.1859 37.2667 62.4793 36.56 63.0659 36C63.6793 35.4133 64.4526 35.12 65.3859 35.12C66.3193 35.12 67.0793 35.4 67.6659 35.96C68.2793 36.4933 68.5859 37.1733 68.5859 38C68.5859 38.88 68.2926 39.6267 67.7059 40.24C67.1193 40.8267 66.3459 41.12 65.3859 41.12ZM86.5484 44.4C88.2551 44.4 89.7751 44.7333 91.1084 45.4C92.4684 46.0667 93.5351 47.0933 94.3084 48.48C95.0818 49.84 95.4684 51.6 95.4684 53.76V66H90.4684V54.4C90.4684 52.5067 90.0151 51.0933 89.1084 50.16C88.2284 49.2267 86.9884 48.76 85.3884 48.76C84.2151 48.76 83.1751 49 82.2684 49.48C81.3618 49.96 80.6551 50.68 80.1484 51.64C79.6684 52.5733 79.4284 53.76 79.4284 55.2V66H74.4284V44.64H79.1884V50.4L78.3484 48.64C79.0951 47.28 80.1751 46.24 81.5884 45.52C83.0284 44.7733 84.6818 44.4 86.5484 44.4ZM110.89 66.28C108.837 66.28 106.984 65.8267 105.33 64.92C103.704 63.9867 102.424 62.7067 101.49 61.08C100.557 59.4533 100.09 57.5333 100.09 55.32C100.09 53.1067 100.557 51.1867 101.49 49.56C102.424 47.9333 103.704 46.6667 105.33 45.76C106.984 44.8533 108.837 44.4 110.89 44.4C112.677 44.4 114.277 44.8 115.69 45.6C117.104 46.3733 118.224 47.56 119.05 49.16C119.877 50.76 120.29 52.8133 120.29 55.32C120.29 57.8 119.89 59.8533 119.09 61.48C118.29 63.08 117.184 64.28 115.77 65.08C114.357 65.88 112.73 66.28 110.89 66.28ZM111.49 62C112.69 62 113.757 61.7333 114.69 61.2C115.65 60.6667 116.41 59.8933 116.97 58.88C117.557 57.8667 117.85 56.68 117.85 55.32C117.85 53.9333 117.557 52.7467 116.97 51.76C116.41 50.7467 115.65 49.9733 114.69 49.44C113.757 48.9067 112.69 48.64 111.49 48.64C110.29 48.64 109.21 48.9067 108.25 49.44C107.317 49.9733 106.557 50.7467 105.97 51.76C105.41 52.7467 105.13 53.9333 105.13 55.32C105.13 56.68 105.41 57.8667 105.97 58.88C106.557 59.8933 107.317 60.6667 108.25 61.2C109.21 61.7333 110.29 62 111.49 62ZM117.97 66V60.96L118.17 55.28L117.77 49.6V36.32H122.73V66H117.97ZM135.911 66.28C134.125 66.28 132.405 66.0533 130.751 65.6C129.125 65.12 127.831 64.5467 126.871 63.88L128.791 60.08C129.751 60.6933 130.898 61.2 132.231 61.6C133.565 62 134.898 62.2 136.231 62.2C137.805 62.2 138.938 61.9867 139.631 61.56C140.351 61.1333 140.711 60.56 140.711 59.84C140.711 59.2533 140.471 58.8133 139.991 58.52C139.511 58.2 138.885 57.96 138.111 57.8C137.338 57.64 136.471 57.4933 135.511 57.36C134.578 57.2267 133.631 57.0533 132.671 56.84C131.738 56.6 130.885 56.2667 130.111 55.84C129.338 55.3867 128.711 54.7867 128.231 54.04C127.751 53.2933 127.511 52.3067 127.511 51.08C127.511 49.72 127.898 48.5467 128.671 47.56C129.445 46.5467 130.525 45.7733 131.911 45.24C133.325 44.68 134.991 44.4 136.911 44.4C138.351 44.4 139.805 44.56 141.271 44.88C142.738 45.2 143.951 45.6533 144.911 46.24L142.991 50.04C141.978 49.4267 140.951 49.0133 139.911 48.8C138.898 48.56 137.885 48.44 136.871 48.44C135.351 48.44 134.218 48.6667 133.471 49.12C132.751 49.5733 132.391 50.1467 132.391 50.84C132.391 51.48 132.631 51.96 133.111 52.28C133.591 52.6 134.218 52.8533 134.991 53.04C135.765 53.2267 136.618 53.3867 137.551 53.52C138.511 53.6267 139.458 53.8 140.391 54.04C141.325 54.28 142.178 54.6133 142.951 55.04C143.751 55.44 144.391 56.0133 144.871 56.76C145.351 57.5067 145.591 58.48 145.591 59.68C145.591 61.0133 145.191 62.1733 144.391 63.16C143.618 64.1467 142.511 64.92 141.071 65.48C139.631 66.0133 137.911 66.28 135.911 66.28Z" fill="url(#paint0_linear_421_145)"/>
<defs>
<linearGradient id="paint0_linear_421_145" x1="169" y1="34" x2="-1" y2="34" gradientUnits="userSpaceOnUse">
<stop stop-color="#B601FF"/>
<stop offset="1" stop-color="#1969E8"/>
</linearGradient>
</defs>
</svg>
