<svg width="93" height="70" viewBox="0 0 93 70" fill="none" xmlns="http://www.w3.org/2000/svg">
<path d="M12.3977 51.4633C11.5119 49.0035 9.15059 47.232 6.3957 47.232C2.85332 47.232 0 50.0854 0 53.6277C0 57.1701 2.85332 60.0234 6.3957 60.0234C9.15059 60.0234 11.5127 58.2519 12.3977 55.7922H23.2215L31.192 46.3455L60.9088 46.3455L68.8793 55.7922H79.7031C80.5889 58.252 82.9502 60.0234 85.7051 60.0234C89.2475 60.0234 92.1008 57.1701 92.1008 53.6277C92.1008 50.0854 89.2475 47.232 85.7051 47.232C82.9502 47.232 80.5881 49.0036 79.7031 51.4633L70.8469 51.4633L62.8764 42.0166L29.224 42.0174L21.2535 51.4633L12.3977 51.4633ZM87.7727 53.6285C87.7727 54.8095 86.8869 55.6945 85.7066 55.6945C84.5256 55.6945 83.6406 54.8087 83.6406 53.6285C83.6406 52.4475 84.5264 51.5625 85.7066 51.5625C86.8869 51.5617 87.7727 52.4475 87.7727 53.6285ZM4.3293 53.6285C4.3293 52.4475 5.21508 51.5625 6.39531 51.5625C7.57635 51.5625 8.46133 52.4483 8.46133 53.6285C8.46133 54.8095 7.57555 55.6945 6.39531 55.6945C5.21504 55.6945 4.3293 54.7103 4.3293 53.6285Z" fill="white"/>
<path d="M79.7031 13.6783L68.8793 13.6783L60.9088 23.125L31.192 23.1242L23.2215 13.6775L12.3977 13.6775C11.5119 11.2178 9.15059 9.44629 6.3957 9.44629C2.85332 9.44629 0 12.2996 0 15.842C0 19.3844 2.85332 22.2377 6.3957 22.2377C9.15059 22.2377 11.5127 20.4662 12.3977 18.0064H21.2539L29.2244 27.4531L62.9764 27.4531L70.9469 18.0064L79.8031 18.0064C80.6889 20.4662 83.0502 22.2377 85.8051 22.2377C89.3475 22.2377 92.2008 19.3844 92.2008 15.842C92.2008 12.2996 89.3475 9.44629 85.8051 9.44629C82.951 9.44705 80.5897 11.2178 79.7039 13.6783L79.7031 13.6783ZM4.32813 15.8428C4.32813 14.6617 5.2139 13.7767 6.39414 13.7767C7.57517 13.7767 8.46016 14.6625 8.46016 15.8428C8.46016 17.0238 7.57437 17.9088 6.39414 17.9088C5.21387 17.9095 4.32813 17.0238 4.32813 15.8428ZM87.7715 15.8428C87.7715 17.0238 86.8857 17.9088 85.7055 17.9088C84.5244 17.9088 83.6394 17.023 83.6394 15.8428C83.6394 14.6617 84.5252 13.7767 85.7055 13.7767C86.8857 13.7767 87.7715 14.7602 87.7715 15.8428Z" fill="white"/>
<path d="M55.4966 6.39658C55.4966 7.47919 55.7919 8.56103 56.2839 9.44677L52.9384 13.678L39.1621 13.678L35.8166 9.44677C36.3087 8.56099 36.6039 7.47841 36.6039 6.39658C36.6039 2.85419 33.7506 0.000879765 30.2082 0.000879765C26.6658 0.000879765 23.8125 2.85419 23.8125 6.39658C23.8125 9.93896 26.6658 12.7923 30.2082 12.7923C31.094 12.7923 31.8813 12.5954 32.5695 12.3002L37.0961 18.0078L55.0045 18.0078L59.5311 12.3002C60.22 12.5954 61.1058 12.7923 61.8924 12.7923C65.4348 12.7923 68.2881 9.93896 68.2881 6.39658C68.2881 2.85419 65.4348 0.000879765 61.8924 0.000879765C58.3508 0.000116874 55.4966 2.95185 55.4966 6.39658ZM28.1411 6.39658C28.1411 5.21554 29.0269 4.33056 30.2071 4.33056C31.3882 4.33056 32.2732 5.21634 32.2732 6.39658C32.2732 7.57761 31.3874 8.46259 30.2071 8.46259C29.0269 8.46259 28.1411 7.57681 28.1411 6.39658ZM63.9595 6.39658C63.9595 7.57761 63.0737 8.46259 61.8935 8.46259C60.7124 8.46259 59.8275 7.57681 59.8275 6.39658C59.8275 5.21554 60.7132 4.33056 61.8935 4.33056C63.0738 4.3298 63.9595 5.314 63.9595 6.39658Z" fill="white"/>
<path d="M61.8932 56.6773C61.0074 56.6773 60.22 56.8742 59.5318 57.1694L55.0053 51.4618H37.0961L32.5695 57.1694C31.8806 56.8742 30.9948 56.6773 30.2082 56.6773C26.6658 56.6773 23.8125 59.5307 23.8125 63.073C23.8125 66.6154 26.6658 69.4688 30.2082 69.4688C33.7506 69.4688 36.6039 66.6154 36.6039 63.073C36.6039 61.9904 36.3087 60.9086 35.8166 60.0229L39.1621 55.7916H52.9384L56.2839 60.0229C55.7919 60.9086 55.4966 61.9912 55.4966 63.073C55.4966 66.6154 58.3499 69.4688 61.8923 69.4688C65.4347 69.4688 68.288 66.6154 68.288 63.073C68.2888 59.5307 65.4355 56.6773 61.8932 56.6773ZM30.2076 65.1398C29.0266 65.1398 28.1416 64.2541 28.1416 63.0738C28.1416 61.8928 29.0274 61.0078 30.2076 61.0078C31.3887 61.0078 32.2736 61.8936 32.2736 63.0738C32.2736 64.1557 31.2894 65.1398 30.2076 65.1398ZM63.9576 63.073C63.9576 64.2541 63.0718 65.1391 61.8916 65.1391C60.7106 65.1391 59.8256 64.2533 59.8256 63.073C59.8256 61.892 60.7114 61.007 61.8916 61.007C63.0718 61.007 63.9576 61.8928 63.9576 63.073Z" fill="white"/>
<path d="M22.2375 28.3375C18.6951 28.3375 15.8418 31.1908 15.8418 34.7332C15.8418 38.2756 18.6951 41.1289 22.2375 41.1289C24.9924 41.1289 27.3545 39.3574 28.2395 36.8977L63.7629 36.8977C64.6487 39.3574 67.01 41.1289 69.7648 41.1289C73.3072 41.1289 76.1606 38.2756 76.1606 34.7332C76.1606 31.1908 73.3072 28.3375 69.7648 28.3375C67.01 28.3375 64.6479 30.109 63.7629 32.5687L28.2395 32.5687C27.3537 30.109 24.9924 28.3375 22.2375 28.3375ZM20.2691 34.7332C20.2691 33.5522 21.1549 32.6672 22.3352 32.6672C23.5162 32.6672 24.4012 33.553 24.4012 34.7332C24.4012 35.9142 23.5154 36.7992 22.3352 36.7992C21.1549 36.8 20.2691 35.8158 20.2691 34.7332ZM71.8316 34.7332C71.8316 35.9142 70.9459 36.7992 69.7656 36.7992C68.5846 36.7992 67.6996 35.9134 67.6996 34.7332C67.6996 33.5522 68.5854 32.6672 69.7656 32.6672C70.9459 32.6672 71.8316 33.553 71.8316 34.7332Z" fill="white"/>
</svg>
