<svg width="2577" height="1283" viewBox="0 0 2577 1283" fill="none" xmlns="http://www.w3.org/2000/svg">
<path d="M2085.72 0L2057.23 90.9714C2051.89 108.037 2037.74 120.98 2020.12 124.929L1793.23 175.867C1722.82 191.671 1666.29 243.364 1644.87 311.513L1534.81 645.292C1529.34 662.101 1515.3 674.809 1497.87 678.714L1405.25 699.504L1532.09 314.486L1561.62 220.192C1583 151.943 1639.57 100.162 1710.05 84.338L2085.72 0Z" fill="url(#paint0_linear_379_15)"/>
<path d="M1203.38 309.117L1240.57 190.473L1538.73 123.253C1538.73 123.253 1513.38 128.817 1478.53 247.467L1203.38 309.117Z" fill="url(#paint1_linear_379_15)"/>
<path d="M231.18 268.485C205.494 268.485 182.286 272.991 161.556 282.004C140.826 290.566 123.251 303.41 108.831 320.534C94.4099 337.208 83.3692 357.712 75.7082 382.047C68.0473 405.931 64.2167 432.964 64.2167 463.157C64.2167 502.814 70.3004 537.288 82.4678 566.58C95.0859 595.871 113.562 618.404 137.897 634.176C162.682 649.949 193.552 657.835 230.504 657.835C251.685 657.835 271.738 656.032 290.665 652.427C309.592 648.822 328.069 644.316 346.095 638.908V691.633C328.069 698.393 309.367 703.35 289.989 706.505C271.062 709.659 248.305 711.236 221.717 711.236C172.597 711.236 131.588 701.097 98.691 680.818C65.794 660.539 41.0086 631.698 24.3348 594.294C8.11157 556.891 0 512.953 0 462.481C0 425.979 4.95708 392.637 14.8712 362.444C25.2361 332.251 40.1073 306.114 59.485 284.032C79.3133 261.95 103.648 245.051 132.489 233.335C161.331 221.167 194.453 215.083 231.856 215.083C256.642 215.083 280.526 217.562 303.509 222.519C326.492 227.476 346.996 234.461 365.022 243.474L340.687 294.847C325.816 288.088 309.142 282.004 290.665 276.596C272.64 271.189 252.811 268.485 231.18 268.485ZM612.314 335.405C619.075 335.405 626.286 335.856 633.945 336.757C642.058 337.208 649.043 338.109 654.901 339.461L647.466 394.214C641.607 392.862 635.072 391.736 627.861 390.835C621.103 389.933 614.569 389.483 608.26 389.483C594.288 389.483 580.994 392.412 568.376 398.27C555.758 404.129 544.492 412.465 534.578 423.275C524.664 433.64 516.778 446.258 510.919 461.129C505.511 476 502.808 492.674 502.808 511.15V704.477H443.323V342.165H491.992L498.752 408.41H501.456C509.117 394.89 518.355 382.723 529.17 371.908C539.986 360.641 552.38 351.854 566.35 345.545C580.318 338.785 595.64 335.405 612.314 335.405ZM849.278 335.405C880.372 335.405 906.96 342.165 929.042 355.684C951.574 369.204 968.698 388.356 980.415 413.141C992.582 437.47 998.666 466.086 998.666 498.983V534.809H750.587C751.488 575.818 761.853 607.138 781.681 628.768C801.96 649.949 830.125 660.539 866.177 660.539C889.16 660.539 909.439 658.511 927.014 654.455C945.039 649.949 963.516 643.64 982.443 635.528V687.578C963.967 695.689 945.716 701.547 927.69 705.153C909.664 709.208 888.258 711.236 863.473 711.236C829.224 711.236 798.806 704.251 772.218 690.281C746.08 676.311 725.576 655.582 710.705 628.093C696.284 600.153 689.074 566.129 689.074 526.022C689.074 486.365 695.608 452.341 708.677 423.951C722.196 395.566 740.898 373.71 764.782 358.388C789.117 343.066 817.282 335.405 849.278 335.405ZM848.602 384.075C820.211 384.075 797.679 393.313 781.005 411.789C764.782 429.809 755.093 455.045 751.939 487.492H936.477C936.477 466.762 933.323 448.736 927.014 433.414C920.705 418.098 911.016 406.156 897.947 397.594C885.329 388.581 868.881 384.075 848.602 384.075ZM1228.12 336.081C1272.28 336.081 1304.95 345.77 1326.13 365.148C1347.31 384.526 1357.9 415.395 1357.9 457.749V704.477H1314.64L1303.15 653.103H1300.45C1290.08 666.172 1279.27 677.213 1268 686.226C1257.19 694.788 1244.57 701.097 1230.15 705.153C1216.18 709.208 1199.05 711.236 1178.77 711.236C1157.14 711.236 1137.54 707.406 1119.96 699.745C1102.84 692.084 1089.32 680.367 1079.41 664.595C1069.49 648.371 1064.54 628.092 1064.54 603.758C1064.54 567.706 1078.73 539.992 1107.12 520.614C1135.51 500.786 1179.22 489.97 1238.26 488.168L1299.77 486.14V464.509C1299.77 434.316 1293.24 413.367 1280.17 401.65C1267.1 389.933 1248.62 384.075 1224.74 384.075C1205.81 384.075 1187.79 387.004 1170.66 392.862C1153.54 398.27 1137.54 404.579 1122.67 411.789L1104.42 367.176C1120.19 358.613 1138.89 351.403 1160.52 345.545C1182.15 339.236 1204.69 336.081 1228.12 336.081ZM1245.69 529.401C1200.63 531.204 1169.31 538.414 1151.73 551.032C1134.61 563.65 1126.05 581.451 1126.05 604.434C1126.05 624.713 1132.13 639.584 1144.3 649.047C1156.92 658.511 1172.92 663.243 1192.29 663.243C1222.94 663.243 1248.4 654.906 1268.68 638.232C1288.96 621.107 1299.1 594.97 1299.1 559.82V527.374L1245.69 529.401ZM1829.62 342.165V704.477H1770.14V342.165H1829.62ZM1800.56 206.296C1809.57 206.296 1817.46 209.45 1824.22 215.759C1831.43 221.618 1835.03 231.081 1835.03 244.15C1835.03 256.768 1831.43 266.232 1824.22 272.541C1817.46 278.85 1809.57 282.004 1800.56 282.004C1790.64 282.004 1782.31 278.85 1775.55 272.541C1768.79 266.232 1765.41 256.768 1765.41 244.15C1765.41 231.081 1768.79 221.618 1775.55 215.759C1782.31 209.45 1790.64 206.296 1800.56 206.296ZM2024.18 704.477L1886.96 342.165H1950.5L2027.56 555.764C2031.17 565.678 2035 576.719 2039.05 588.887C2043.11 601.054 2046.71 612.771 2049.87 624.037C2053.02 634.852 2055.28 644.09 2056.63 651.751H2059.33C2061.13 644.09 2063.61 634.627 2066.77 623.361C2070.37 612.095 2074.2 600.378 2078.26 588.21C2082.77 576.043 2086.6 565.228 2089.75 555.764L2166.81 342.165H2230.35L2092.45 704.477H2024.18ZM2427.6 335.405C2458.69 335.405 2485.28 342.165 2507.36 355.684C2529.89 369.204 2547.02 388.356 2558.74 413.141C2570.9 437.47 2576.99 466.086 2576.99 498.983V534.809H2328.91C2329.81 575.818 2340.17 607.138 2360 628.768C2380.28 649.949 2408.45 660.539 2444.5 660.539C2467.48 660.539 2487.76 658.511 2505.33 654.455C2523.36 649.949 2541.84 643.64 2560.76 635.528V687.578C2542.29 695.689 2524.04 701.547 2506.01 705.153C2487.98 709.208 2466.58 711.236 2441.79 711.236C2407.54 711.236 2377.13 704.251 2350.54 690.281C2324.4 676.311 2303.9 655.582 2289.03 628.093C2274.6 600.153 2267.39 566.129 2267.39 526.022C2267.39 486.365 2273.93 452.341 2287 423.951C2300.52 395.566 2319.22 373.71 2343.1 358.388C2367.44 343.066 2395.6 335.405 2427.6 335.405ZM2426.92 384.075C2398.53 384.075 2376 393.313 2359.33 411.789C2343.1 429.809 2333.41 455.045 2330.26 487.492H2514.8C2514.8 466.762 2511.64 448.736 2505.33 433.414C2499.03 418.098 2489.34 406.156 2476.27 397.594C2463.65 388.581 2447.2 384.075 2426.92 384.075ZM659.731 1275.29L500.879 852.138H498.175C499.076 861.15 499.752 872.642 500.203 886.612C501.104 900.582 501.78 915.904 502.231 932.577C502.681 948.801 502.907 965.474 502.907 982.599V1275.29H446.801V792.653H536.705L685.418 1188.09H688.121L839.538 792.653H928.765V1275.29H868.604V978.543C868.604 962.771 868.83 947.223 869.28 931.901C869.731 916.129 870.407 901.483 871.308 887.964C872.209 873.994 872.885 862.277 873.336 852.813H870.632L709.752 1275.29H659.731ZM1111.43 912.974V1275.29H1051.94V912.974H1111.43ZM1082.37 777.105C1091.38 777.105 1099.26 780.26 1106.02 786.569C1113.23 792.427 1116.84 801.891 1116.84 814.959C1116.84 827.577 1113.23 837.041 1106.02 843.35C1099.26 849.659 1091.38 852.813 1082.37 852.813C1072.45 852.813 1064.11 849.659 1057.35 843.35C1050.59 837.041 1047.21 827.577 1047.21 814.959C1047.21 801.891 1050.59 792.427 1057.35 786.569C1064.11 780.26 1072.45 777.105 1082.37 777.105ZM1400.61 906.215C1443.87 906.215 1476.54 916.805 1498.63 937.985C1520.71 958.715 1531.75 992.513 1531.75 1039.38V1275.29H1472.94V1043.44C1472.94 1014.14 1466.4 992.288 1453.34 977.867C1440.27 963.447 1419.76 956.236 1391.82 956.236C1351.72 956.236 1324 967.502 1308.68 990.035C1293.36 1012.57 1285.7 1045.01 1285.7 1087.37V1275.29H1226.21V912.974H1274.2L1282.99 962.32H1286.37C1294.48 949.702 1304.4 939.337 1316.11 931.226C1328.28 922.663 1341.58 916.354 1356 912.299C1370.42 908.243 1385.29 906.215 1400.61 906.215ZM1772.51 1282.05C1727.45 1282.05 1691.4 1266.5 1664.36 1235.41C1637.32 1203.86 1623.8 1157 1623.8 1094.81C1623.8 1032.62 1637.32 985.753 1664.36 954.208C1691.85 922.213 1728.12 906.215 1773.19 906.215C1792.11 906.215 1808.56 908.693 1822.53 913.65C1836.5 918.157 1848.67 924.466 1859.04 932.577C1869.4 940.689 1878.19 949.702 1885.4 959.616H1889.45C1889 953.758 1888.1 945.196 1886.75 933.93C1885.85 922.213 1885.4 912.975 1885.4 906.215V761.558H1944.88V1275.29H1896.89L1888.1 1226.62H1885.4C1878.19 1236.99 1869.4 1246.45 1859.04 1255.01C1848.67 1263.12 1836.28 1269.66 1821.86 1274.62C1807.89 1279.57 1791.44 1282.05 1772.51 1282.05ZM1781.98 1232.71C1820.28 1232.71 1847.09 1222.34 1862.42 1201.61C1878.19 1180.43 1886.07 1148.66 1886.07 1106.3V1095.49C1886.07 1050.42 1878.64 1015.95 1863.77 992.062C1848.9 967.728 1821.41 955.56 1781.3 955.56C1749.3 955.56 1725.19 968.404 1708.97 994.09C1693.2 1019.33 1685.31 1053.35 1685.31 1096.16C1685.31 1139.42 1693.2 1173 1708.97 1196.88C1725.19 1220.76 1749.53 1232.71 1781.98 1232.71ZM2295.86 1175.25C2295.86 1198.68 2290 1218.29 2278.28 1234.06C2266.57 1249.83 2249.89 1261.77 2228.26 1269.88C2206.63 1278 2180.95 1282.05 2151.2 1282.05C2125.97 1282.05 2104.11 1280.02 2085.63 1275.97C2067.61 1271.91 2051.61 1266.28 2037.64 1259.07V1204.99C2052.06 1212.2 2069.41 1218.96 2089.69 1225.27C2110.42 1231.13 2131.38 1234.06 2152.56 1234.06C2182.75 1234.06 2204.6 1229.33 2218.12 1219.86C2231.64 1209.95 2238.4 1196.88 2238.4 1180.66C2238.4 1171.64 2235.92 1163.53 2230.97 1156.32C2226.01 1149.11 2217 1141.9 2203.93 1134.69C2191.31 1127.48 2173.06 1119.37 2149.18 1110.36C2125.74 1101.34 2105.69 1092.33 2089.01 1083.32C2072.34 1074.3 2059.5 1063.49 2050.48 1050.87C2041.47 1038.25 2036.96 1022.03 2036.96 1002.2C2036.96 971.558 2049.36 947.899 2074.14 931.226C2099.38 914.552 2132.28 906.215 2172.83 906.215C2194.92 906.215 2215.42 908.468 2234.35 912.974C2253.72 917.03 2271.75 922.889 2288.42 930.55L2268.15 977.867C2258.23 973.361 2247.64 969.53 2236.38 966.376C2225.56 962.771 2214.52 960.067 2203.25 958.264C2191.99 956.011 2180.5 954.884 2168.78 954.884C2144.44 954.884 2125.74 958.94 2112.67 967.052C2100.06 974.713 2093.75 985.303 2093.75 998.822C2093.75 1008.74 2096.68 1017.3 2102.53 1024.51C2108.39 1031.27 2118.08 1038.03 2131.6 1044.79C2145.57 1051.1 2164.05 1058.76 2187.03 1067.77C2210.01 1076.33 2229.62 1085.12 2245.84 1094.13C2262.06 1103.15 2274.45 1114.19 2283.02 1127.26C2291.58 1139.87 2295.86 1155.87 2295.86 1175.25Z" fill="url(#paint2_linear_379_15)"/>
<defs>
<linearGradient id="paint0_linear_379_15" x1="2576.99" y1="641.029" x2="0" y2="641.029" gradientUnits="userSpaceOnUse">
<stop offset="0.675" stop-color="#B601FF"/>
<stop offset="1" stop-color="#7929FF"/>
</linearGradient>
<linearGradient id="paint1_linear_379_15" x1="1288.55" y1="0" x2="1288.55" y2="1282.05" gradientUnits="userSpaceOnUse">
<stop stop-color="#A643CF"/>
<stop offset="1" stop-color="#6A34FF"/>
</linearGradient>
<linearGradient id="paint2_linear_379_15" x1="-43.403" y1="749.54" x2="2750.59" y2="749.54" gradientUnits="userSpaceOnUse">
<stop stop-color="#007AFF"/>
<stop offset="0.73" stop-color="#B600FF"/>
</linearGradient>
</defs>
</svg>
